PathFileType	4	(X/Y/Z)	markers
DataRate	CameraRate	NumFrames	NumMarkers	Units	OrigDataRate	OrigDataStartFrame	OrigNumFrames
200	200	4	39	mm	200	97	257
Frame#	Time	RASI			LASI			RPSI			LPSI			RTH1			RTH2			RTH3			RTH4			RLFC			RTB1			RTB2			RTB3			RTB4			RLMAL			RCAL			RTOE			RMT5			LTH1			LTH2			LTH3			LTH4			LLFC			LTB1			LTB2			LTB3			LTB4			LLMAL			LCAL			LTOE			LMT5			C7			T10			CLAV			RACR			LACR			RLEL			RFAradius			LLEL			LFAradius		
		X1	Y1	Z1	X2	Y2	Z2	X3	Y3	Z3	X4	Y4	Z4	X5	Y5	Z5	X6	Y6	Z6	X7	Y7	Z7	X8	Y8	Z8	X9	Y9	Z9	X10	Y10	Z10	X11	Y11	Z11	X12	Y12	Z12	X13	Y13	Z13	X14	Y14	Z14	X15	Y15	Z15	X16	Y16	Z16	X17	Y17	Z17	X18	Y18	Z18	X19	Y19	Z19	X20	Y20	Z20	X21	Y21	Z21	X22	Y22	Z22	X23	Y23	Z23	X24	Y24	Z24	X25	Y25	Z25	X26	Y26	Z26	X27	Y27	Z27	X28	Y28	Z28	X29	Y29	Z29	X30	Y30	Z30	X31	Y31	Z31	X32	Y32	Z32	X33	Y33	Z33	X34	Y34	Z34	X35	Y35	Z35	X36	Y36	Z36	X37	Y37	Z37	X38	Y38	Z38	X39	Y39	Z39
97	0.480000	1158.681983	999.422322	733.914630	1187.711402	973.530402	501.108410	1003.619293	1026.546913	645.731121	1016.112921	1020.561631	552.392975	1194.902072	750.490082	779.252018	1249.855029	771.751594	749.323721	1281.078585	673.617180	737.312761	1242.609290	655.228569	763.324175	1273.252178	533.152166	740.681512	1244.081174	409.861403	760.263808	1291.260162	410.752422	740.532058	1288.945102	305.804730	714.683285	1231.143636	308.409264	743.692559	1219.060300	117.530262	697.523325	1163.325404	84.049043	634.306428	1387.892359	81.908218	620.819516	1347.594352	62.178097	716.749047	1157.691226	696.316057	452.880927	1191.408091	702.537005	490.237022	1193.776654	602.893974	513.848310	1147.344282	588.855129	471.134652	1098.968678	478.343728	481.194612	1012.728558	458.907891	452.830354	1015.210982	415.643692	473.392619	913.835888	404.924975	479.941755	905.281930	461.988622	451.791358	687.773436	439.248670	466.603718	642.874155	511.799520	527.509863	634.985256	286.764835	536.760135	624.686829	333.281906	439.769691	1089.097946	1517.093471	614.074968	1008.625244	1328.143899	578.761225	1184.038510	1435.899383	660.304086	1085.643211	1478.702735	783.817124	1182.057385	1497.766048	462.173401	857.718038	1239.276284	826.682220	1028.786670	1042.889562	838.713041	1142.617555	1167.739567	347.746115	1310.323830	1213.828299	530.257113
98	0.485000	1172.423913	995.166273	734.744851	1202.659909	968.897891	501.771863	1017.293853	1022.785968	645.644372	1029.666115	1015.496118	552.860087	1209.652037	746.026098	782.435391	1264.439886	768.984159	752.353330	1295.329528	670.185384	740.509396	1257.979176	651.778140	766.987498	1288.427954	529.506479	742.231834	1257.126287	406.199558	759.742075	1304.739001	405.892588	739.463652	1299.290854	301.669893	714.272590	1241.524127	306.575554	743.311624	1223.652843	117.602330	696.393052	1166.356400	86.214353	633.835399	1390.071046	77.012667	619.816960	1349.796740	58.378068	715.610896	1175.953595	691.259581	453.818482	1210.175742	699.278231	491.090545	1214.910720	599.216571	514.649000	1168.922213	584.171438	472.794207	1123.472990	473.184875	481.776084	1036.727762	455.595896	453.000760	1038.416699	412.697929	473.327427	937.578023	403.296459	481.769124	929.782991	460.721803	452.119298	712.261550	443.250112	466.679443	668.218122	515.772570	528.676101	657.075021	290.595543	534.706345	648.142715	338.423267	438.669651	1104.450441	1512.007975	615.881073	1023.586034	1323.729448	579.572917	1200.286493	1430.849287	661.194335	1102.031281	1472.587100	785.681178	1196.977711	1493.357035	463.032729	877.199072	1230.175798	829.267266	1051.638888	1037.576961	838.807102	1154.537271	1163.646625	347.793198	1323.491858	1205.876505	530.279029
99	0.490000	1186.235673	990.824872	735.340120	1217.447584	964.241696	502.458931	1030.666644	1017.541017	645.729692	1043.968253	1010.736505	551.881212	1223.352632	742.987893	786.526391	1278.163535	765.674346	754.985349	1309.421872	666.373931	743.467243	1272.391727	647.926584	770.759096	1304.857800	525.633056	743.196884	1270.670136	403.084994	759.809987	1317.941512	401.071477	739.984317	1309.715625	297.625782	713.362787	1252.290304	304.995693	742.767895	1226.006152	116.878435	695.702748	1168.148705	87.423855	633.522920	1392.200755	72.468383	618.548855	1352.067323	57.464173	715.163597	1194.969592	686.864330	454.281074	1229.097990	696.295853	491.884566	1235.652314	595.445339	514.371909	1190.366259	579.443883	473.048380	1147.608192	469.424029	481.084571	1061.793710	452.534661	454.095817	1062.317653	409.551934	474.505932	961.503777	402.106615	482.576821	954.557493	459.637614	452.249420	737.511942	446.625627	467.106526	693.996607	519.510721	529.115603	680.779135	293.730532	532.397938	672.797088	343.527704	436.725943	1120.311518	1506.789920	617.335300	1038.886443	1319.014489	580.395428	1216.639699	1426.089957	662.293070	1118.573369	1466.845999	787.693120	1211.849916	1489.037429	463.757293	896.399301	1220.924716	831.635177	1074.605264	1032.095010	838.586238	1166.679652	1159.392880	347.840726	1336.677484	1197.504097	530.273028
100	0.495000	1199.866556	986.060310	736.075609	1232.300596	958.992091	503.380490	1044.102631	1012.430737	645.665646	1057.192368	1005.641024	553.119494	1237.784561	738.746662	790.042542	1291.507027	761.168351	756.719102	1323.855564	662.282441	746.679945	1286.546357	644.191099	774.196932	1321.499650	522.455477	743.940316	1284.180889	400.315400	759.914436	1332.073955	398.900535	741.055382	1319.955604	295.056767	712.456893	1263.205487	303.282034	742.652892	1229.013298	116.618279	695.437409	1169.745890	88.455082	633.476205	1394.011582	67.847249	616.004325	1353.573102	57.874059	713.419978	1215.040914	683.025961	454.878068	1248.151261	693.609453	492.623961	1256.910671	592.677229	515.032651	1212.725798	575.657350	473.858673	1172.737784	464.540304	483.274788	1086.859658	449.473427	455.190875	1086.981097	406.870984	476.054818	985.295624	400.995577	483.161527	979.658292	458.609890	452.262929	763.313434	449.379461	467.343544	720.136017	522.184115	529.558951	704.267296	296.391037	531.250541	697.040052	346.425492	435.997440	1135.654198	1501.948434	618.871721	1053.744135	1315.605027	581.516502	1232.830456	1420.758776	662.999480	1135.155675	1461.393806	789.705744	1226.666510	1485.207757	464.398755	916.154372	1211.131328	834.488148	1097.600456	1026.160020	837.962267	1177.950604	1155.355070	348.021556	1349.563104	1188.677773	529.675484
